<svg width="32" height="33" viewBox="0 0 32 33" fill="none" xmlns="http://www.w3.org/2000/svg">
<path fill-rule="evenodd" clip-rule="evenodd" d="M20.5879 4.46082C20.4779 4.36957 20.2079 4.15208 19.9241 3.94208C18.8566 3.15458 16.8567 1.99957 14.3268 2.49957C11.9993 2.95957 9.16679 4.84333 6.23292 9.9369C-1.05348 22.5868 12.4756 31.2996 12.4756 31.2996C12.6918 31.4371 12.9756 31.3908 13.1368 31.1921C13.2968 30.9921 13.2793 30.7046 13.0993 30.5246C11.3019 28.7408 10.2705 26.1672 9.66681 23.7296C8.91431 20.6883 8.83305 17.8459 8.82807 16.9099C11.0243 15.9312 13.8406 13.376 15.4307 11.8299C15.3445 12.0049 15.2495 12.1812 15.1495 12.3524C14.4945 13.4824 13.617 14.4374 13.617 14.4374C13.4695 14.5974 13.4432 14.8349 13.552 15.0249C13.6595 15.2137 13.8795 15.3112 14.092 15.2649C16.1432 14.8149 17.8493 13.3224 18.9245 12.1399C18.6133 13.2611 18.1807 14.3336 18.1807 14.3336C18.1032 14.5286 18.1557 14.7511 18.3107 14.8911C18.467 15.0311 18.6933 15.0586 18.8782 14.9624C20.5145 14.1024 21.377 12.6573 21.8044 11.6437C22.5281 13.2675 22.7006 15.2762 22.6119 17.2488C22.4481 20.9098 21.3644 24.4514 20.9806 25.3064C20.3031 26.8164 20.1369 30.4589 20.1369 30.4589C20.1281 30.6851 20.2706 30.8889 20.4869 30.9564C20.7019 31.0239 20.9369 30.9389 21.0581 30.7489C24.953 24.6564 26.8784 19.9916 27.5856 16.4262C28.3181 12.7412 27.7606 10.1913 26.7231 8.42756C24.8418 5.22996 21.3393 4.57129 20.5892 4.46489L20.5879 4.46082ZM10.2042 28.1435C6.90175 24.9174 2.42922 18.5435 7.09908 10.436C9.81295 5.72349 12.3652 3.90749 14.5202 3.48109C17.0151 2.98858 18.9026 4.3936 19.6866 5.02234C19.954 5.23609 20.1353 5.3736 20.2028 5.40234C20.2503 5.42234 20.3015 5.43485 20.3528 5.43984C20.3528 5.43984 24.0053 5.77859 25.8603 8.93238C26.8065 10.5411 27.2703 12.87 26.6028 16.23C25.9803 19.3625 24.3828 23.3625 21.2953 28.47C21.4078 27.4875 21.594 26.3775 21.8915 25.7124C22.2928 24.8186 23.4378 21.1188 23.609 17.2913C23.7253 14.6838 23.3815 12.0238 22.1015 10.115C21.989 9.94754 21.784 9.86254 21.5866 9.90379C21.3878 9.94379 21.2328 10.1013 21.194 10.3C21.194 10.3 20.8915 11.8863 19.649 13.1502C19.9465 12.2077 20.2515 11.0477 20.2353 10.2963C20.2303 10.0763 20.0828 9.88505 19.8703 9.8263C19.6578 9.76755 19.4328 9.8538 19.314 10.0388C19.314 10.0388 17.7978 12.4363 15.4826 13.6775C15.6638 13.42 15.8451 13.14 16.0113 12.8512C16.5251 11.965 16.8938 10.9775 16.7926 10.1787C16.7676 9.98619 16.6351 9.82619 16.45 9.76619C16.265 9.70744 16.0626 9.75869 15.9313 9.89994C15.9313 9.89994 11.2588 14.9125 8.14756 16.1063C7.95882 16.1788 7.83132 16.3588 7.82631 16.5601C7.82631 16.5601 7.73881 20.1116 8.6938 23.9676C9.0413 25.3701 9.52631 26.81 10.2 28.1388L10.2025 28.1425L10.2042 28.1435ZM6.04788 18.316C6.04788 18.316 5.97788 19.1085 6.08039 20.1835C6.11788 20.5685 6.17539 20.991 6.28289 21.416C6.38414 21.816 6.53039 22.2185 6.70414 22.606C6.97414 23.2085 7.3179 23.766 7.72665 24.2273C7.81665 24.3498 7.98915 24.376 8.11289 24.286C8.23539 24.1948 8.26164 24.0235 8.17164 23.8998C7.88662 23.426 7.70038 22.871 7.53665 22.301C7.44665 21.9861 7.37415 21.6673 7.29915 21.3548C7.24665 21.1385 7.19165 20.9273 7.13915 20.721C7.0529 20.3785 6.97165 20.056 6.9029 19.7585C6.70415 18.8998 6.60039 18.2935 6.60039 18.2935C6.59539 18.141 6.46664 18.0223 6.31415 18.0285C6.16166 18.0348 6.0429 18.1623 6.04915 18.3148L6.04788 18.316ZM20.433 7.09496C20.433 7.09496 21.9055 7.75872 23.173 9.2912C23.623 9.8337 24.038 10.4887 24.373 11.265C24.6542 11.9175 24.883 12.6525 24.9955 13.4975C25.1305 14.5262 25.1217 15.705 24.848 17.0649C24.8117 17.2124 24.9017 17.3624 25.0505 17.3987C25.198 17.4362 25.348 17.3449 25.3842 17.1974C25.8055 15.7762 25.9467 14.5198 25.8767 13.4113C25.8167 12.4538 25.6067 11.6051 25.293 10.8701C24.9155 9.99131 24.3955 9.27256 23.8467 8.69381C22.3442 7.11131 20.6278 6.57632 20.6278 6.57632C20.4853 6.52257 20.3253 6.59507 20.2728 6.73757C20.2191 6.88007 20.2903 7.04008 20.4341 7.09381L20.433 7.09496ZM5.87802 16.8275C5.87802 16.8275 7.09426 16.0975 8.75295 14.9637C9.3317 14.5675 9.96546 14.125 10.6155 13.6412C11.2104 13.1987 11.823 12.7287 12.4192 12.2325C12.8117 11.9062 13.1967 11.5675 13.5705 11.225C14.3942 10.47 15.1655 9.69498 15.8167 8.94624C16.6655 7.96874 17.308 7.03248 17.6117 6.22997C17.6704 6.08997 17.6042 5.92746 17.4642 5.86872C17.3242 5.80872 17.1617 5.87497 17.1017 6.01497C16.6267 7.03998 15.4804 8.24246 14.1105 9.47737C13.4817 10.0461 12.8017 10.6161 12.118 11.1824C11.6655 11.5586 11.213 11.9349 10.7655 12.2999C10.0505 12.8861 9.35297 13.4474 8.71297 13.9549C6.92047 15.3749 5.57057 16.3686 5.57057 16.3686C5.44307 16.4524 5.40932 16.6249 5.49307 16.7511C5.57807 16.8786 5.74932 16.9136 5.87558 16.8286L5.87802 16.8275ZM7.04551 12.8302C7.04551 12.8302 8.373 11.9127 10.0306 10.6164C10.6431 10.1364 11.3031 9.6089 11.9468 9.04389C12.5768 8.49138 13.1868 7.9064 13.7543 7.33888C14.8381 6.25386 15.7406 5.21637 16.2106 4.48128C16.298 4.35628 16.2681 4.18378 16.1443 4.09626C16.0193 4.00876 15.8468 4.03877 15.7593 4.16376C15.3905 4.63627 14.7855 5.22627 14.0643 5.88C13.6105 6.29251 13.1093 6.72502 12.5918 7.17251C12.1043 7.59502 11.5968 8.02376 11.1043 8.45502C10.4893 8.99502 9.89305 9.53376 9.34305 10.0275C7.84054 11.3763 6.70305 12.3988 6.70305 12.3988C6.58305 12.4925 6.56305 12.6663 6.6568 12.7863C6.7518 12.9063 6.92429 12.9263 7.04429 12.8325L7.04551 12.8302Z" fill="white"/>
</svg>
