<?xml version="1.0" encoding="utf-8"?>
<!-- Uploaded to: SVG Repo, www.svgrepo.com, Generator: SVG Repo Mixer Tools -->
<svg fill="#FFFFFF" width="24" height="24" viewBox="0 0 32 32" version="1.1" xmlns="http://www.w3.org/2000/svg">
<path d="M30.773 11.9c-0.010-0.331-0.020-0.662-0.023-0.994-0.020-1.584-0.084-2.878-0.207-4.073-0.059-0.623-0.147-1.18-0.267-1.724l0.017 0.092c-0.071-0.439-0.238-0.83-0.478-1.164l0.006 0.008c-0.091-0.112-0.211-0.197-0.35-0.242l-0.005-0.001c-0.304-0.126-0.657-0.2-1.028-0.2-0.531 0-1.027 0.151-1.447 0.413l0.012-0.007c-0.697 0.541-1.165 1.35-1.249 2.27l-0.001 0.013-0.51 5.007c-0.292-0.154-0.638-0.245-1.006-0.245-0.861 0-1.606 0.497-1.963 1.221l-0.006 0.013-1.553 2.693-2.953 2.821c-0.051 0.048-0.095 0.103-0.13 0.164l-0.002 0.003-0.832 1.44-0.431-0.249c-0.015-0.009-0.033-0.008-0.049-0.016-0.093-0.046-0.203-0.073-0.319-0.073s-0.227 0.027-0.324 0.076l0.004-0.002c-0.015 0.007-0.032 0.007-0.047 0.015l-0.082 0.047-0.014 0.008-0.335 0.193-0.831-1.44c-0.037-0.064-0.081-0.119-0.132-0.167l-0-0-2.953-2.821-1.556-2.693c-0.303-0.565-0.812-0.986-1.424-1.168l-0.017-0.004c-0.16-0.044-0.345-0.070-0.535-0.070-0.366 0-0.71 0.094-1.009 0.259l0.011-0.005-0.507-4.996c-0.084-0.937-0.553-1.75-1.246-2.289l-0.007-0.005c-0.408-0.255-0.903-0.406-1.434-0.406-0.37 0-0.723 0.073-1.045 0.207l0.018-0.007c-0.144 0.046-0.265 0.131-0.354 0.242l-0.001 0.001c-0.241 0.337-0.411 0.74-0.48 1.177l-0.002 0.016c-0.1 0.442-0.185 0.987-0.237 1.541l-0.004 0.055c-0.124 1.197-0.189 2.491-0.207 4.072-0.004 0.327-0.014 0.654-0.023 0.982-0.019 0.315-0.030 0.682-0.030 1.053 0 0.701 0.039 1.393 0.116 2.074l-0.008-0.083c0.358 2.481 1.584 4.625 3.354 6.157l0.013 0.011c1.047 0.83 1.971 1.736 2.791 2.73l0.025 0.031-0.597 0.345c-0.226 0.132-0.375 0.374-0.375 0.65 0 0.138 0.037 0.268 0.102 0.379l-0.002-0.004 1.605 2.781c0.099 0.17 0.259 0.296 0.45 0.348l0.005 0.001c0.057 0.016 0.123 0.025 0.191 0.025 0.001 0 0.002 0 0.003 0h-0c0.001 0 0.001 0 0.002 0 0.137 0 0.266-0.037 0.377-0.102l-0.004 0.002 6.756-3.901 6.753 3.901c0.107 0.063 0.236 0.1 0.373 0.1 0.001 0 0.001 0 0.002 0h-0c0.001 0 0.002 0 0.004 0 0.067 0 0.133-0.009 0.195-0.027l-0.005 0.001c0.196-0.053 0.357-0.179 0.455-0.346l0.002-0.004 1.605-2.781c0.063-0.108 0.1-0.237 0.1-0.375 0-0.277-0.15-0.518-0.372-0.648l-0.004-0.002-0.597-0.344c0.852-1.032 1.782-1.943 2.8-2.749l0.038-0.029c1.772-1.54 2.989-3.678 3.336-6.096l0.006-0.053c0.070-0.599 0.11-1.292 0.11-1.995 0-0.365-0.011-0.727-0.032-1.087l0.002 0.050zM5.624 19.943c-1.492-1.313-2.521-3.121-2.827-5.166l-0.006-0.047c-0.061-0.538-0.095-1.162-0.095-1.794 0-0.353 0.011-0.703 0.032-1.050l-0.002 0.048c0.011-0.337 0.021-0.674 0.024-1.011 0.017-1.534 0.080-2.784 0.199-3.934 0.051-0.554 0.128-1.050 0.235-1.536l-0.015 0.082c0.026-0.118 0.059-0.263 0.098-0.379 0.099-0.030 0.213-0.048 0.331-0.048 0.207 0 0.401 0.054 0.569 0.148l-0.006-0.003c0.334 0.296 0.556 0.714 0.595 1.183l0 0.007 0.713 7.020c0.012 0.111 0.046 0.213 0.099 0.302l-0.002-0.004 0.402 0.696 2.815 4.877c0.131 0.232 0.375 0.385 0.655 0.385 0.414 0 0.75-0.336 0.75-0.75 0-0.142-0.040-0.275-0.108-0.389l0.002 0.003-2.815-4.877c-0.316-0.549-0.129-0.918 0.153-1.080 0.276-0.163 0.694-0.141 1.011 0.408l1.609 2.786c0.037 0.064 0.081 0.119 0.131 0.167l0 0 2.953 2.822 0.777 1.346-5.111 2.95c-0.939-1.187-1.979-2.226-3.129-3.133l-0.040-0.030zM22.854 26.611l-6.475-3.74c-0.016-0.009-0.034-0.009-0.051-0.017-0.058-0.030-0.126-0.053-0.198-0.066l-0.004-0.001c-0.025-0.003-0.054-0.006-0.084-0.006h-0c-0.014-0.001-0.030-0.001-0.046-0.001-0.053 0-0.105 0.006-0.155 0.016l0.005-0.001c-0.037 0.010-0.069 0.020-0.099 0.032l0.005-0.002c-0.046 0.011-0.085 0.024-0.123 0.040l0.005-0.002-6.488 3.746-0.855-1.48 7.711-4.451 7.709 4.451zM29.207 14.73c-0.307 2.082-1.327 3.884-2.799 5.185l-0.009 0.008c-1.198 0.943-2.245 1.989-3.161 3.144l-0.030 0.039-5.111-2.95 0.778-1.346 2.953-2.822c0.051-0.048 0.095-0.103 0.131-0.164l0.002-0.003 1.605-2.786c0.111-0.221 0.3-0.39 0.53-0.473l0.007-0.002c0.047-0.013 0.102-0.020 0.158-0.020 0.117 0 0.227 0.032 0.322 0.088l-0.003-0.002c0.281 0.162 0.469 0.531 0.15 1.080l-2.814 4.877c-0.064 0.108-0.102 0.238-0.102 0.378 0 0.415 0.336 0.751 0.751 0.751 0.278 0 0.52-0.151 0.65-0.375l0.002-0.004 3.215-5.573c0.052-0.086 0.087-0.187 0.097-0.296l0-0.003 0.717-7.032c0.044-0.468 0.261-0.879 0.586-1.172l0.002-0.001c0.163-0.093 0.359-0.148 0.567-0.148 0.118 0 0.232 0.018 0.34 0.051l-0.008-0.002c0.035 0.106 0.072 0.244 0.101 0.384l0.005 0.026c0.089 0.395 0.164 0.881 0.209 1.375l0.003 0.047c0.117 1.147 0.182 2.397 0.199 3.935 0.004 0.341 0.014 0.682 0.023 1.023 0.020 0.3 0.031 0.65 0.031 1.002 0 0.628-0.035 1.247-0.104 1.857l0.007-0.075z"></path>
</svg>